# xmcd CD database file
#
# Track frame offsets:
#	150
#	48341
#	65785
#	98625
#	124768
#	160846
#	187878
#	199375
#	225659
#	250404
#	271931
#	332778
#
# Disc length: 4795 seconds
#
# Revision: 0
# Processed by: cddbd v1.5.2PL0 Copyright (c) Steve Scherf et al.
# Submitted via: CDex 1.70beta2
#
DISCID=aa12b90c
DTITLE=Various Artist - BLUE VILLAGE 02
DYEAR=2003
DGENRE=Jazz
TTITLE0=BLUE TRAIN
TTITLE1=TEMPUS FIGHT
TTITLE2=SONG FOR MY FATHER
TTITLE3=MONK'S DREAM
TTITLE4=BLUE BOSSA
TTITLE5=HACKENSACK
TTITLE6=SUMMERTIME
TTITLE7=MAMBO INN
TTITLE8=CANTALOUPE ISLAND
TTITLE9=LULLABY OF BIRDLAND
TTITLE10=AUTUMN LEAVES
TTITLE11=dammy data
EXTD=YEAR: 2003
EXTT0=
EXTT1=
EXTT2=
EXTT3=
EXTT4=
EXTT5=
EXTT6=
EXTT7=
EXTT8=
EXTT9=
EXTT10=
EXTT11=
PLAYORDER=
